{
  "accessors": [
    {
      "bufferView": 2,
      "componentType": 5126,
      "count": 5869,
      "max": [
        -708.1071166992188,
        152.74342346191406,
        5463.84033203125
      ],
      "min": [
        -7506.51904296875,
        -18497.64453125,
        833.4104614257813
      ],
      "type": "VEC3"
    },
    {
      "bufferView": 0,
      "componentType": 5125,
      "count": 33086,
      "type": "SCALAR"
    },
    {
      "bufferView": 2,
      "byteOffset": 70428,
      "componentType": 5126,
      "count": 16579,
      "max": [
        -596.0045776367188,
        152.74342346191406,
        5463.84033203125
      ],
      "min": [
        -7618.62255859375,
        -18497.64453125,
        833.4104614257813
      ],
      "type": "VEC3"
    },
    {
      "bufferView": 2,
      "byteOffset": 269376,
      "componentType": 5126,
      "count": 16579,
      "max": [
        1.0,
        0.999997079372406,
        1.0
      ],
      "min": [
        -1.0,
        -0.9997798204421997,
        -1.0
      ],
      "type": "VEC3"
    },
    {
      "bufferView": 0,
      "byteOffset": 132344,
      "componentType": 5125,
      "count": 50982,
      "type": "SCALAR"
    },
    {
      "bufferView": 2,
      "byteOffset": 468324,
      "componentType": 5126,
      "count": 5006,
      "max": [
        -64.74724578857422,
        -235.3594970703125,
        3717.98388671875
      ],
      "min": [
        -8149.88134765625,
        -18476.072265625,
        206.16751098632813
      ],
      "type": "VEC3"
    },
    {
      "bufferView": 2,
      "byteOffset": 528396,
      "componentType": 5126,
      "count": 5006,
      "max": [
        1.0,
        1.0,
        1.0
      ],
      "min": [
        -1.0,
        -1.0,
        -1.0
      ],
      "type": "VEC3"
    },
    {
      "bufferView": 0,
      "byteOffset": 336272,
      "componentType": 5125,
      "count": 11670,
      "type": "SCALAR"
    },
    {
      "bufferView": 2,
      "byteOffset": 588468,
      "componentType": 5126,
      "count": 2120,
      "max": [
        -46.95723342895508,
        63.2311897277832,
        5166.45361328125
      ],
      "min": [
        -8167.6650390625,
        -18286.638671875,
        463.7299499511719
      ],
      "type": "VEC3"
    },
    {
      "bufferView": 0,
      "byteOffset": 382952,
      "componentType": 5125,
      "count": 10700,
      "type": "SCALAR"
    },
    {
      "bufferView": 2,
      "byteOffset": 613908,
      "componentType": 5126,
      "count": 9403,
      "max": [
        -46.95723342895508,
        439.73895263671875,
        5324.56201171875
      ],
      "min": [
        -8167.6650390625,
        -18286.638671875,
        463.7299499511719
      ],
      "type": "VEC3"
    },
    {
      "bufferView": 2,
      "byteOffset": 726744,
      "componentType": 5126,
      "count": 9403,
      "max": [
        1.0,
        1.0,
        1.0
      ],
      "min": [
        -1.0,
        -1.0,
        -1.0
      ],
      "type": "VEC3"
    },
    {
      "bufferView": 0,
      "byteOffset": 425752,
      "componentType": 5125,
      "count": 28941,
      "type": "SCALAR"
    },
    {
      "bufferView": 2,
      "byteOffset": 839580,
      "componentType": 5126,
      "count": 68,
      "max": [
        -219.11941528320313,
        -1462.316162109375,
        2662.721435546875
      ],
      "min": [
        -7995.5087890625,
        -5523.43701171875,
        2508.9365234375
      ],
      "type": "VEC3"
    },
    {
      "bufferView": 0,
      "byteOffset": 541516,
      "componentType": 5125,
      "count": 156,
      "type": "SCALAR"
    },
    {
      "bufferView": 2,
      "byteOffset": 840396,
      "componentType": 5126,
      "count": 590,
      "max": [
        -216.30401611328125,
        -1457.5992431640625,
        3330.610107421875
      ],
      "min": [
        -7998.32421875,
        -17798.87109375,
        2302.50732421875
      ],
      "type": "VEC3"
    },
    {
      "bufferView": 2,
      "byteOffset": 847476,
      "componentType": 5126,
      "count": 590,
      "max": [
        0.9855921268463135,
        1.0,
        0.9652676582336426
      ],
      "min": [
        -0.9855921268463135,
        -0.9999998211860657,
        -0.8618766665458679
      ],
      "type": "VEC3"
    },
    {
      "bufferView": 0,
      "byteOffset": 542140,
      "componentType": 5125,
      "count": 2136,
      "type": "SCALAR"
    },
    {
      "bufferView": 2,
      "byteOffset": 854556,
      "componentType": 5126,
      "count": 496,
      "max": [
        -1107.970947265625,
        -264.5765075683594,
        3744.431396484375
      ],
      "min": [
        -7106.6552734375,
        -18246.939453125,
        749.8136596679688
      ],
      "type": "VEC3"
    },
    {
      "bufferView": 0,
      "byteOffset": 550684,
      "componentType": 5125,
      "count": 2266,
      "type": "SCALAR"
    },
    {
      "bufferView": 2,
      "byteOffset": 860508,
      "componentType": 5126,
      "count": 3110,
      "max": [
        208.74705505371094,
        -264.5765075683594,
        5023.419921875
      ],
      "min": [
        -8423.3740234375,
        -18246.939453125,
        749.8136596679688
      ],
      "type": "VEC3"
    },
    {
      "bufferView": 2,
      "byteOffset": 897828,
      "componentType": 5126,
      "count": 3110,
      "max": [
        1.0,
        1.0,
        1.0
      ],
      "min": [
        -1.0,
        -1.0,
        -1.0
      ],
      "type": "VEC3"
    },
    {
      "bufferView": 0,
      "byteOffset": 559748,
      "componentType": 5125,
      "count": 10944,
      "type": "SCALAR"
    },
    {
      "bufferView": 2,
      "byteOffset": 935148,
      "componentType": 5126,
      "count": 144,
      "max": [
        -2089.906005859375,
        -9109.373046875,
        5106.2998046875
      ],
      "min": [
        -6124.7158203125,
        -9156.3671875,
        5041.74072265625
      ],
      "type": "VEC3"
    },
    {
      "bufferView": 0,
      "byteOffset": 603524,
      "componentType": 5125,
      "count": 768,
      "type": "SCALAR"
    },
    {
      "bufferView": 2,
      "byteOffset": 936876,
      "componentType": 5126,
      "count": 576,
      "max": [
        -1272.958984375,
        -1058.00390625,
        5106.2998046875
      ],
      "min": [
        -6941.6689453125,
        -17968.478515625,
        2208.49169921875
      ],
      "type": "VEC3"
    },
    {
      "bufferView": 2,
      "byteOffset": 943788,
      "componentType": 5126,
      "count": 576,
      "max": [
        0.9929879903793335,
        1.0,
        0.9956719279289246
      ],
      "min": [
        -0.9929879903793335,
        -1.0,
        -0.9957576990127563
      ],
      "type": "VEC3"
    },
    {
      "bufferView": 0,
      "byteOffset": 606596,
      "componentType": 5125,
      "count": 1920,
      "type": "SCALAR"
    },
    {
      "bufferView": 2,
      "byteOffset": 950700,
      "componentType": 5126,
      "count": 835,
      "max": [
        -1051.7730712890625,
        -345.57989501953125,
        5147.94873046875
      ],
      "min": [
        -7155.41064453125,
        -8791.6611328125,
        2017.7520751953125
      ],
      "type": "VEC3"
    },
    {
      "bufferView": 2,
      "byteOffset": 960720,
      "componentType": 5126,
      "count": 835,
      "max": [
        1.0,
        0.9991012215614319,
        0.99238520860672
      ],
      "min": [
        -1.0,
        -0.9994487762451172,
        -0.9992510080337524
      ],
      "type": "VEC3"
    },
    {
      "bufferView": 0,
      "byteOffset": 614276,
      "componentType": 5125,
      "count": 1608,
      "type": "SCALAR"
    },
    {
      "bufferView": 2,
      "byteOffset": 970740,
      "componentType": 5126,
      "count": 688,
      "max": [
        -674.31103515625,
        -100.36483764648438,
        4525.2109375
      ],
      "min": [
        -7540.31591796875,
        -18159.900390625,
        2091.645263671875
      ],
      "type": "VEC3"
    },
    {
      "bufferView": 2,
      "byteOffset": 978996,
      "componentType": 5126,
      "count": 688,
      "max": [
        0.9628015756607056,
        0.9978974461555481,
        0.9996474981307983
      ],
      "min": [
        -0.9628015756607056,
        -0.9978974461555481,
        -0.9996474981307983
      ],
      "type": "VEC3"
    },
    {
      "bufferView": 0,
      "byteOffset": 620708,
      "componentType": 5125,
      "count": 2568,
      "type": "SCALAR"
    },
    {
      "bufferView": 2,
      "byteOffset": 987252,
      "componentType": 5126,
      "count": 7451,
      "max": [
        258.09405517578125,
        439.73895263671875,
        4266.55517578125
      ],
      "min": [
        -8472.720703125,
        -18627.619140625,
        463.72955322265625
      ],
      "type": "VEC3"
    },
    {
      "bufferView": 2,
      "byteOffset": 1076664,
      "componentType": 5126,
      "count": 7451,
      "max": [
        0.999985933303833,
        0.9993187785148621,
        0.9998989105224609
      ],
      "min": [
        -0.999985933303833,
        -0.9997075796127319,
        -1.0
      ],
      "type": "VEC3"
    },
    {
      "bufferView": 0,
      "byteOffset": 630980,
      "componentType": 5125,
      "count": 39306,
      "type": "SCALAR"
    },
    {
      "bufferView": 2,
      "byteOffset": 1166076,
      "componentType": 5126,
      "count": 1376,
      "max": [
        214.7929229736328,
        -1137.4971923828125,
        4256.3974609375
      ],
      "min": [
        -8429.419921875,
        -17904.90234375,
        1181.539794921875
      ],
      "type": "VEC3"
    },
    {
      "bufferView": 2,
      "byteOffset": 1182588,
      "componentType": 5126,
      "count": 1376,
      "max": [
        1.0,
        0.9997615814208984,
        1.0
      ],
      "min": [
        -1.0,
        -0.9413096904754639,
        -1.0
      ],
      "type": "VEC3"
    },
    {
      "bufferView": 0,
      "byteOffset": 788204,
      "componentType": 5125,
      "count": 5052,
      "type": "SCALAR"
    },
    {
      "bufferView": 2,
      "byteOffset": 1199100,
      "componentType": 5126,
      "count": 482,
      "max": [
        -763.3462524414063,
        -16944.98828125,
        3843.9091796875
      ],
      "min": [
        -7451.28076171875,
        -18276.9609375,
        2859.9052734375
      ],
      "type": "VEC3"
    },
    {
      "bufferView": 2,
      "byteOffset": 1204884,
      "componentType": 5126,
      "count": 482,
      "max": [
        0.9857993125915527,
        0.99524986743927,
        0.6468698978424072
      ],
      "min": [
        -0.9857993125915527,
        -1.0,
        -0.7646057605743408
      ],
      "type": "VEC3"
    },
    {
      "bufferView": 0,
      "byteOffset": 808412,
      "componentType": 5125,
      "count": 2028,
      "type": "SCALAR"
    },
    {
      "bufferView": 2,
      "byteOffset": 1210668,
      "componentType": 5126,
      "count": 112,
      "max": [
        -1051.7730712890625,
        -345.57989501953125,
        2164.1220703125
      ],
      "min": [
        -7155.41064453125,
        -859.1488037109375,
        2017.7520751953125
      ],
      "type": "VEC3"
    },
    {
      "bufferView": 0,
      "byteOffset": 816524,
      "componentType": 5125,
      "count": 552,
      "type": "SCALAR"
    },
    {
      "bufferView": 2,
      "byteOffset": 1212012,
      "componentType": 5126,
      "count": 228,
      "max": [
        -2924.921875,
        448.1013488769531,
        2068.26806640625
      ],
      "min": [
        -5351.3154296875,
        427.10369873046875,
        1554.992431640625
      ],
      "type": "VEC3"
    },
    {
      "bufferView": 2,
      "byteOffset": 1214748,
      "componentType": 5126,
      "count": 228,
      "max": [
        1.0,
        1.0,
        1.0
      ],
      "min": [
        -1.0,
        -1.0,
        -1.0
      ],
      "type": "VEC3"
    },
    {
      "bufferView": 0,
      "byteOffset": 818732,
      "componentType": 5125,
      "count": 582,
      "type": "SCALAR"
    },
    {
      "bufferView": 2,
      "byteOffset": 1217484,
      "componentType": 5126,
      "count": 284,
      "max": [
        -2924.921875,
        448.1013488769531,
        2068.26806640625
      ],
      "min": [
        -5351.3154296875,
        427.10369873046875,
        1554.992431640625
      ],
      "type": "VEC3"
    },
    {
      "bufferView": 2,
      "byteOffset": 1220892,
      "componentType": 5126,
      "count": 284,
      "max": [
        1.0,
        1.0,
        1.0
      ],
      "min": [
        -1.0,
        -1.0,
        -1.0
      ],
      "type": "VEC3"
    },
    {
      "bufferView": 0,
      "byteOffset": 821060,
      "componentType": 5125,
      "count": 738,
      "type": "SCALAR"
    },
    {
      "bufferView": 2,
      "byteOffset": 1224300,
      "componentType": 5126,
      "count": 112,
      "max": [
        -2924.921875,
        448.1013488769531,
        2068.26806640625
      ],
      "min": [
        -5351.3154296875,
        427.10369873046875,
        1554.992431640625
      ],
      "type": "VEC3"
    },
    {
      "bufferView": 0,
      "byteOffset": 824012,
      "componentType": 5125,
      "count": 300,
      "type": "SCALAR"
    },
    {
      "bufferView": 2,
      "byteOffset": 1225644,
      "componentType": 5126,
      "count": 21,
      "max": [
        -5302.81884765625,
        448.1013488769531,
        1603.4888916015625
      ],
      "min": [
        -5351.3154296875,
        441.1021423339844,
        1554.992431640625
      ],
      "type": "VEC3"
    },
    {
      "bufferView": 0,
      "byteOffset": 825212,
      "componentType": 5125,
      "count": 36,
      "type": "SCALAR"
    },
    {
      "bufferView": 2,
      "byteOffset": 1225896,
      "componentType": 5126,
      "count": 8,
      "max": [
        -2952.91845703125,
        448.1013488769531,
        2040.2708740234375
      ],
      "min": [
        -5323.318359375,
        448.1013488769531,
        1582.9892578125
      ],
      "type": "VEC3"
    },
    {
      "bufferView": 2,
      "byteOffset": 1225992,
      "componentType": 5126,
      "count": 8,
      "max": [
        1.6653345369377348e-16,
        1.0,
        2.444702968708301e-13
      ],
      "min": [
        -1.6653345369377348e-16,
        -1.0,
        -2.444702968708301e-13
      ],
      "type": "VEC3"
    },
    {
      "bufferView": 1,
      "componentType": 5126,
      "count": 8,
      "max": [
        1.0000849962234497,
        -12.999250411987305
      ],
      "min": [
        -0.00029450340662151575,
        -13.998459815979004
      ],
      "type": "VEC2"
    },
    {
      "bufferView": 0,
      "byteOffset": 825356,
      "componentType": 5125,
      "count": 12,
      "type": "SCALAR"
    },
    {
      "bufferView": 2,
      "byteOffset": 1226088,
      "componentType": 5126,
      "count": 74,
      "max": [
        -1151.26123046875,
        -6661.47216796875,
        5266.40283203125
      ],
      "min": [
        -7063.36474609375,
        -8897.58203125,
        3764.107666015625
      ],
      "type": "VEC3"
    },
    {
      "bufferView": 0,
      "byteOffset": 825404,
      "componentType": 5125,
      "count": 268,
      "type": "SCALAR"
    },
    {
      "bufferView": 2,
      "byteOffset": 1226976,
      "componentType": 5126,
      "count": 183,
      "max": [
        -1151.26123046875,
        -6661.47216796875,
        5266.40283203125
      ],
      "min": [
        -7063.36474609375,
        -8954.4775390625,
        3754.3212890625
      ],
      "type": "VEC3"
    },
    {
      "bufferView": 2,
      "byteOffset": 1229172,
      "componentType": 5126,
      "count": 183,
      "max": [
        0.5497047901153564,
        0.6207988262176514,
        0.8592362999916077
      ],
      "min": [
        -0.5497047901153564,
        -0.6207988262176514,
        -0.8240134119987488
      ],
      "type": "VEC3"
    },
    {
      "bufferView": 0,
      "byteOffset": 826476,
      "componentType": 5125,
      "count": 810,
      "type": "SCALAR"
    },
    {
      "bufferView": 2,
      "byteOffset": 1231368,
      "componentType": 5126,
      "count": 132,
      "max": [
        -106.69019317626953,
        -2703.41064453125,
        1875.12158203125
      ],
      "min": [
        -8107.93798828125,
        -14698.4326171875,
        1044.7884521484375
      ],
      "type": "VEC3"
    },
    {
      "bufferView": 0,
      "byteOffset": 829716,
      "componentType": 5125,
      "count": 176,
      "type": "SCALAR"
    },
    {
      "bufferView": 2,
      "byteOffset": 1232952,
      "componentType": 5126,
      "count": 2492,
      "max": [
        -64.74724578857422,
        -1956.6636962890625,
        2609.73583984375
      ],
      "min": [
        -8149.88134765625,
        -15514.4130859375,
        206.16751098632813
      ],
      "type": "VEC3"
    },
    {
      "bufferView": 2,
      "byteOffset": 1262856,
      "componentType": 5126,
      "count": 2492,
      "max": [
        1.0,
        0.9997426867485046,
        0.9997426867485046
      ],
      "min": [
        -1.0,
        -0.9997426867485046,
        -0.9997426867485046
      ],
      "type": "VEC3"
    },
    {
      "bufferView": 0,
      "byteOffset": 830420,
      "componentType": 5125,
      "count": 9324,
      "type": "SCALAR"
    },
    {
      "bufferView": 2,
      "byteOffset": 1292760,
      "componentType": 5126,
      "count": 5032,
      "max": [
        -64.74724578857422,
        -1841.5013427734375,
        2736.142578125
      ],
      "min": [
        -8149.88134765625,
        -15691.052734375,
        29.527788162231445
      ],
      "type": "VEC3"
    },
    {
      "bufferView": 2,
      "byteOffset": 1353144,
      "componentType": 5126,
      "count": 5032,
      "max": [
        1.0,
        0.9998222589492798,
        0.9998222589492798
      ],
      "min": [
        -1.0,
        -0.9998222589492798,
        -0.9998222589492798
      ],
      "type": "VEC3"
    },
    {
      "bufferView": 0,
      "byteOffset": 867716,
      "componentType": 5125,
      "count": 15624,
      "type": "SCALAR"
    },
    {
      "bufferView": 2,
      "byteOffset": 1413528,
      "componentType": 5126,
      "count": 24700,
      "max": [
        -347.0985107421875,
        -2372.282958984375,
        2277.473388671875
      ],
      "min": [
        -7867.52978515625,
        -15160.2724609375,
        560.3101806640625
      ],
      "type": "VEC3"
    },
    {
      "bufferView": 0,
      "byteOffset": 930212,
      "componentType": 5125,
      "count": 72704,
      "type": "SCALAR"
    },
    {
      "bufferView": 2,
      "byteOffset": 1709928,
      "componentType": 5126,
      "count": 192,
      "max": [
        -553.6528930664063,
        -3217.948974609375,
        2277.473388671875
      ],
      "min": [
        -7660.9755859375,
        -14416.998046875,
        2221.361328125
      ],
      "type": "VEC3"
    },
    {
      "bufferView": 2,
      "byteOffset": 1712232,
      "componentType": 5126,
      "count": 192,
      "max": [
        2.9346742592452346e-13,
        0.9980820417404175,
        0.9980820417404175
      ],
      "min": [
        -2.9346742592452346e-13,
        -0.9980820417404175,
        -0.9980820417404175
      ],
      "type": "VEC3"
    },
    {
      "bufferView": 0,
      "byteOffset": 1221028,
      "componentType": 5125,
      "count": 576,
      "type": "SCALAR"
    },
    {
      "bufferView": 2,
      "byteOffset": 1714536,
      "componentType": 5126,
      "count": 65532,
      "max": [
        -462.1282653808594,
        -2424.41748046875,
        2295.84619140625
      ],
      "min": [
        -7867.52978515625,
        -15122.41796875,
        600.3215942382813
      ],
      "type": "VEC3"
    },
    {
      "bufferView": 2,
      "byteOffset": 2500920,
      "componentType": 5126,
      "count": 65532,
      "max": [
        1.0,
        0.9999984502792358,
        0.9999984502792358
      ],
      "min": [
        -1.0,
        -0.9999984502792358,
        -0.9999984502792358
      ],
      "type": "VEC3"
    },
    {
      "bufferView": 0,
      "byteOffset": 1223332,
      "componentType": 5125,
      "count": 191139,
      "type": "SCALAR"
    },
    {
      "bufferView": 2,
      "byteOffset": 3287304,
      "componentType": 5126,
      "count": 61130,
      "max": [
        -347.0985107421875,
        -2372.282958984375,
        2277.473388671875
      ],
      "min": [
        -7655.15673828125,
        -15160.2724609375,
        560.3101806640625
      ],
      "type": "VEC3"
    },
    {
      "bufferView": 2,
      "byteOffset": 4020864,
      "componentType": 5126,
      "count": 61130,
      "max": [
        1.0,
        0.9999984502792358,
        0.9999984502792358
      ],
      "min": [
        -1.0,
        -0.9999984502792358,
        -0.9999984502792358
      ],
      "type": "VEC3"
    },
    {
      "bufferView": 0,
      "byteOffset": 1987888,
      "componentType": 5125,
      "count": 192717,
      "type": "SCALAR"
    },
    {
      "bufferView": 2,
      "byteOffset": 4754424,
      "componentType": 5126,
      "count": 364,
      "max": [
        -699.3910522460938,
        -2467.878173828125,
        2205.362548828125
      ],
      "min": [
        -7515.2373046875,
        -15103.369140625,
        607.3932495117188
      ],
      "type": "VEC3"
    },
    {
      "bufferView": 0,
      "byteOffset": 2758756,
      "componentType": 5125,
      "count": 384,
      "type": "SCALAR"
    },
    {
      "bufferView": 2,
      "byteOffset": 4758792,
      "componentType": 5126,
      "count": 104,
      "max": [
        -690.7276611328125,
        -3242.442626953125,
        2221.986083984375
      ],
      "min": [
        -7523.90087890625,
        -14596.2158203125,
        2214.590576171875
      ],
      "type": "VEC3"
    },
    {
      "bufferView": 2,
      "byteOffset": 4760040,
      "componentType": 5126,
      "count": 104,
      "max": [
        1.0,
        4.885835541077995e-15,
        0.9999984502792358
      ],
      "min": [
        -1.0,
        -0.0017453315667808056,
        -2.3557886327449373e-13
      ],
      "type": "VEC3"
    },
    {
      "bufferView": 0,
      "byteOffset": 2760292,
      "componentType": 5125,
      "count": 288,
      "type": "SCALAR"
    },
    {
      "bufferView": 2,
      "byteOffset": 4761288,
      "componentType": 5126,
      "count": 432,
      "max": [
        -478.4207763671875,
        -2779.918212890625,
        2271.76708984375
      ],
      "min": [
        -7736.20751953125,
        -14738.23828125,
        2023.7581787109375
      ],
      "type": "VEC3"
    },
    {
      "bufferView": 2,
      "byteOffset": 4766472,
      "componentType": 5126,
      "count": 432,
      "max": [
        1.0,
        0.0017453315667808056,
        2.1852556927621364e-13
      ],
      "min": [
        -1.0,
        4.920203902912838e-15,
        -0.9999984502792358
      ],
      "type": "VEC3"
    },
    {
      "bufferView": 0,
      "byteOffset": 2761444,
      "componentType": 5125,
      "count": 1248,
      "type": "SCALAR"
    },
    {
      "bufferView": 2,
      "byteOffset": 4771656,
      "componentType": 5126,
      "count": 32,
      "max": [
        -674.4351196289063,
        -3242.466552734375,
        2229.013427734375
      ],
      "min": [
        -7540.193359375,
        -14596.2275390625,
        2228.6455078125
      ],
      "type": "VEC3"
    },
    {
      "bufferView": 2,
      "byteOffset": 4772040,
      "componentType": 5126,
      "count": 32,
      "max": [
        2.936075590553172e-13,
        0.0017453315667808056,
        0.9999984502792358
      ],
      "min": [
        -2.936075590553172e-13,
        -0.0017453315667808056,
        -0.9999984502792358
      ],
      "type": "VEC3"
    },
    {
      "bufferView": 0,
      "byteOffset": 2766436,
      "componentType": 5125,
      "count": 48,
      "type": "SCALAR"
    },
    {
      "bufferView": 2,
      "byteOffset": 4772424,
      "componentType": 5126,
      "count": 32,
      "max": [
        -474.34765625,
        -3063.6669921875,
        2160.459716796875
      ],
      "min": [
        -7740.28076171875,
        -14470.630859375,
        2089.62451171875
      ],
      "type": "VEC3"
    },
    {
      "bufferView": 2,
      "byteOffset": 4772808,
      "componentType": 5126,
      "count": 32,
      "max": [
        1.0,
        4.9151543159977815e-15,
        2.1848602300197223e-13
      ],
      "min": [
        -1.0,
        -4.9151543159977815e-15,
        -2.1848602300197223e-13
      ],
      "type": "VEC3"
    },
    {
      "bufferView": 1,
      "byteOffset": 64,
      "componentType": 5126,
      "count": 32,
      "max": [
        4.268768787384033,
        1.0
      ],
      "min": [
        1.0880189707084681e-13,
        -5.0362019538879395
      ],
      "type": "VEC2"
    },
    {
      "bufferView": 0,
      "byteOffset": 2766628,
      "componentType": 5125,
      "count": 48,
      "type": "SCALAR"
    },
    {
      "bufferView": 2,
      "byteOffset": 4773192,
      "componentType": 5126,
      "count": 8,
      "max": [
        -567.4338989257813,
        -3414.52392578125,
        2242.768310546875
      ],
      "min": [
        -7647.1943359375,
        -14557.8984375,
        2242.767333984375
      ],
      "type": "VEC3"
    },
    {
      "bufferView": 0,
      "byteOffset": 2766820,
      "componentType": 5125,
      "count": 8,
      "type": "SCALAR"
    },
    {
      "bufferView": 2,
      "byteOffset": 4773288,
      "componentType": 5126,
      "count": 18093,
      "max": [
        -64.74724578857422,
        448.1013488769531,
        5324.56201171875
      ],
      "min": [
        -8149.88134765625,
        -18497.64453125,
        29.527788162231445
      ],
      "type": "VEC3"
    },
    {
      "bufferView": 0,
      "byteOffset": 2766852,
      "componentType": 5125,
      "count": 66964,
      "type": "SCALAR"
    },
    {
      "bufferView": 2,
      "byteOffset": 4990404,
      "componentType": 5126,
      "count": 7220,
      "max": [
        258.09405517578125,
        439.73895263671875,
        4266.55517578125
      ],
      "min": [
        -8472.720703125,
        -18627.619140625,
        463.72955322265625
      ],
      "type": "VEC3"
    },
    {
      "bufferView": 0,
      "byteOffset": 3034708,
      "componentType": 5125,
      "count": 40808,
      "type": "SCALAR"
    },
    {
      "bufferView": 2,
      "byteOffset": 5077044,
      "componentType": 5126,
      "count": 206,
      "max": [
        -639.669189453125,
        449.5011901855469,
        1974.0096435546875
      ],
      "min": [
        -7574.958984375,
        -14871.431640625,
        849.1506958007813
      ],
      "type": "VEC3"
    },
    {
      "bufferView": 0,
      "byteOffset": 3197940,
      "componentType": 5125,
      "count": 342,
      "type": "SCALAR"
    }
  ],
  "asset": {
    "extras": {
      "author": "RPMRender (https://sketchfab.com/RPMRender)",
      "license": "SKETCHFAB Standard (https://sketchfab.com/licenses)",
      "source": "https://sketchfab.com/3d-models/honda-s2000-ultimate-edition-f92c00db810c45938653cbaacd239a36",
      "title": "Honda S2000 Ultimate Edition"
    },
    "generator": "Sketchfab-16.62.0",
    "version": "2.0"
  },
  "bufferViews": [
    {
      "buffer": 0,
      "byteLength": 3199308,
      "name": "floatBufferViews",
      "target": 34963
    },
    {
      "buffer": 0,
      "byteLength": 320,
      "byteOffset": 3199308,
      "byteStride": 8,
      "name": "floatBufferViews",
      "target": 34962
    },
    {
      "buffer": 0,
      "byteLength": 5079516,
      "byteOffset": 3199628,
      "byteStride": 12,
      "name": "floatBufferViews",
      "target": 34962
    }
  ],
  "buffers": [
    {
      "byteLength": 8279144,
      "uri": "scene.bin"
    }
  ],
  "extensionsUsed": [
    "KHR_materials_clearcoat"
  ],
  "images": [
    {
      "uri": "textures/algerije_nummerbord1_baseColor.jpeg"
    },
    {
      "uri": "textures/brembo-logo_baseColor.jpeg"
    }
  ],
  "materials": [
    {
      "alphaMode": "BLEND",
      "name": "edge_color303030255",
      "pbrMetallicRoughness": {
        "baseColorFactor": [
          1.0,
          1.0,
          1.0,
          0.0
        ],
        "metallicFactor": 0.0,
        "roughnessFactor": 0.6
      }
    },
    {
      "name": "Color_M08_1",
      "pbrMetallicRoughness": {
        "baseColorFactor": [
          0.117647,
          0.117647,
          0.117647,
          1.0
        ],
        "metallicFactor": 0.0,
        "roughnessFactor": 0.6
      }
    },
    {
      "name": "material",
      "pbrMetallicRoughness": {
        "metallicFactor": 0.7509467144759149,
        "roughnessFactor": 0.17598102314594832
      }
    },
    {
      "alphaMode": "BLEND",
      "name": "edge_color202020255",
      "pbrMetallicRoughness": {
        "baseColorFactor": [
          1.0,
          1.0,
          1.0,
          0.0
        ],
        "metallicFactor": 0.0,
        "roughnessFactor": 0.6
      }
    },
    {
      "name": "Color_M08",
      "pbrMetallicRoughness": {
        "baseColorFactor": [
          0.0784314,
          0.0784314,
          0.0784314,
          1.0
        ],
        "metallicFactor": 0.0,
        "roughnessFactor": 0.6
      }
    },
    {
      "alphaMode": "BLEND",
      "name": "edge_color000255",
      "pbrMetallicRoughness": {
        "baseColorFactor": [
          1.0,
          1.0,
          1.0,
          0.0
        ],
        "metallicFactor": 0.0,
        "roughnessFactor": 0.6
      }
    },
    {
      "alphaMode": "BLEND",
      "name": "edge_color153380255",
      "pbrMetallicRoughness": {
        "baseColorFactor": [
          1.0,
          1.0,
          1.0,
          0.0
        ],
        "metallicFactor": 0.0,
        "roughnessFactor": 0.6
      }
    },
    {
      "name": "Color_B07",
      "pbrMetallicRoughness": {
        "baseColorFactor": [
          0.5999999999999998,
          0.14901999999999996,
          0.0,
          1.0
        ],
        "metallicFactor": 0.0,
        "roughnessFactor": 0.6
      }
    },
    {
      "alphaMode": "BLEND",
      "name": "edge_color198198198255",
      "pbrMetallicRoughness": {
        "baseColorFactor": [
          1.0,
          1.0,
          1.0,
          0.0
        ],
        "metallicFactor": 0.0,
        "roughnessFactor": 0.6
      }
    },
    {
      "name": "Color_M02",
      "pbrMetallicRoughness": {
        "baseColorFactor": [
          0.776471,
          0.776471,
          0.776471,
          1.0
        ],
        "metallicFactor": 0.0,
        "roughnessFactor": 0.6
      }
    },
    {
      "alphaMode": "BLEND",
      "name": "edge_color142142142255",
      "pbrMetallicRoughness": {
        "baseColorFactor": [
          1.0,
          1.0,
          1.0,
          0.0
        ],
        "metallicFactor": 0.0,
        "roughnessFactor": 0.6
      }
    },
    {
      "name": "Color_M04_1",
      "pbrMetallicRoughness": {
        "baseColorFactor": [
          0.556863,
          0.556863,
          0.556863,
          1.0
        ],
        "metallicFactor": 0.0,
        "roughnessFactor": 0.6
      }
    },
    {
      "name": "material_4",
      "pbrMetallicRoughness": {
        "baseColorFactor": [
          0.207843,
          0.207843,
          0.207843,
          1.0
        ],
        "metallicFactor": 0.0,
        "roughnessFactor": 0.6
      }
    },
    {
      "alphaMode": "BLEND",
      "name": "Translucent_Glass_Gray",
      "pbrMetallicRoughness": {
        "baseColorFactor": [
          0.0,
          0.0,
          0.0,
          0.160784
        ],
        "metallicFactor": 0.0,
        "roughnessFactor": 0.6
      }
    },
    {
      "alphaMode": "BLEND",
      "name": "edge_color226226226255",
      "pbrMetallicRoughness": {
        "baseColorFactor": [
          1.0,
          1.0,
          1.0,
          0.0
        ],
        "metallicFactor": 0.0,
        "roughnessFactor": 0.6
      }
    },
    {
      "extensions": {
        "KHR_materials_clearcoat": {
          "clearcoatFactor": 1.0,
          "clearcoatRoughnessFactor": 0.04
        }
      },
      "name": "Color_M01",
      "pbrMetallicRoughness": {
        "baseColorFactor": [
          0.886274,
          0.886274,
          0.886274,
          1.0
        ],
        "metallicFactor": 0.8118402664576955,
        "roughnessFactor": 0.16989166794777033
      }
    },
    {
      "name": "plastikas__spec",
      "pbrMetallicRoughness": {
        "baseColorFactor": [
          0.0,
          0.0,
          0.0,
          1.0
        ],
        "metallicFactor": 0.0,
        "roughnessFactor": 0.6
      }
    },
    {
      "name": "Color_A06_1",
      "pbrMetallicRoughness": {
        "baseColorFactor": [
          0.8,
          0.0,
          0.0,
          1.0
        ],
        "metallicFactor": 0.0,
        "roughnessFactor": 0.6
      }
    },
    {
      "alphaMode": "BLEND",
      "name": "edge_color535353255",
      "pbrMetallicRoughness": {
        "baseColorFactor": [
          1.0,
          1.0,
          1.0,
          0.0
        ],
        "metallicFactor": 0.0,
        "roughnessFactor": 0.6
      }
    },
    {
      "alphaMode": "BLEND",
      "name": "edge_color353535255",
      "pbrMetallicRoughness": {
        "baseColorFactor": [
          1.0,
          1.0,
          1.0,
          0.0
        ],
        "metallicFactor": 0.0,
        "roughnessFactor": 0.6
      }
    },
    {
      "name": "0136_Charcoal_1",
      "pbrMetallicRoughness": {
        "baseColorFactor": [
          0.0980392,
          0.0980392,
          0.0980392,
          1.0
        ],
        "metallicFactor": 0.0,
        "roughnessFactor": 0.6
      }
    },
    {
      "name": "0130_Gainsboro",
      "pbrMetallicRoughness": {
        "baseColorFactor": [
          0.862745,
          0.862745,
          0.862745,
          1.0
        ],
        "metallicFactor": 0.0,
        "roughnessFactor": 0.6
      }
    },
    {
      "alphaMode": "BLEND",
      "name": "edge_color220220220255",
      "pbrMetallicRoughness": {
        "baseColorFactor": [
          1.0,
          1.0,
          1.0,
          0.0
        ],
        "metallicFactor": 0.0,
        "roughnessFactor": 0.6
      }
    },
    {
      "alphaMode": "BLEND",
      "name": "edge_color252525255",
      "pbrMetallicRoughness": {
        "baseColorFactor": [
          1.0,
          1.0,
          1.0,
          0.0
        ],
        "metallicFactor": 0.0,
        "roughnessFactor": 0.6
      }
    },
    {
      "name": "algerije_nummerbord1",
      "pbrMetallicRoughness": {
        "baseColorTexture": {
          "index": 0
        },
        "metallicFactor": 0.0,
        "roughnessFactor": 0.6
      }
    },
    {
      "alphaMode": "BLEND",
      "name": "edge_color100149237255",
      "pbrMetallicRoughness": {
        "baseColorFactor": [
          1.0,
          1.0,
          1.0,
          0.0
        ],
        "metallicFactor": 0.0,
        "roughnessFactor": 0.6
      }
    },
    {
      "alphaMode": "BLEND",
      "name": "Translucent_Glass_Blue",
      "pbrMetallicRoughness": {
        "baseColorFactor": [
          0.3921569999999998,
          0.5843139999999998,
          0.929412,
          0.501961
        ],
        "metallicFactor": 0.0,
        "roughnessFactor": 0.0
      }
    },
    {
      "alphaMode": "BLEND",
      "name": "edge_color192192192255",
      "pbrMetallicRoughness": {
        "baseColorFactor": [
          1.0,
          1.0,
          1.0,
          0.0
        ],
        "metallicFactor": 0.0,
        "roughnessFactor": 0.6
      }
    },
    {
      "name": "Silver",
      "pbrMetallicRoughness": {
        "baseColorFactor": [
          0.752941,
          0.752941,
          0.752941,
          1.0
        ],
        "metallicFactor": 0.8361976872504078,
        "roughnessFactor": 0.21251715433501672
      }
    },
    {
      "name": "Charcoal",
      "pbrMetallicRoughness": {
        "baseColorFactor": [
          0.137255,
          0.137255,
          0.137255,
          1.0
        ],
        "metallicFactor": 0.0,
        "roughnessFactor": 0.6
      }
    },
    {
      "alphaMode": "BLEND",
      "name": "edge_color169169169255",
      "pbrMetallicRoughness": {
        "baseColorFactor": [
          1.0,
          1.0,
          1.0,
          0.0
        ],
        "metallicFactor": 0.0,
        "roughnessFactor": 0.6
      }
    },
    {
      "name": "Black",
      "pbrMetallicRoughness": {
        "baseColorFactor": [
          0.0,
          0.0,
          0.0,
          1.0
        ],
        "metallicFactor": 0.0,
        "roughnessFactor": 0.6
      }
    },
    {
      "name": "Snow_1",
      "pbrMetallicRoughness": {
        "baseColorFactor": [
          0.662745,
          0.662745,
          0.662745,
          1.0
        ],
        "metallicFactor": 0.0,
        "roughnessFactor": 0.6
      }
    },
    {
      "alphaMode": "BLEND",
      "name": "edge_color25500255",
      "pbrMetallicRoughness": {
        "baseColorFactor": [
          1.0,
          1.0,
          1.0,
          0.0
        ],
        "metallicFactor": 0.0,
        "roughnessFactor": 0.6
      }
    },
    {
      "name": "LightGray",
      "pbrMetallicRoughness": {
        "baseColorFactor": [
          0.662745,
          0.662745,
          0.662745,
          1.0
        ],
        "metallicFactor": 0.0,
        "roughnessFactor": 0.6
      }
    },
    {
      "alphaMode": "BLEND",
      "name": "Red_Glass_6",
      "pbrMetallicRoughness": {
        "baseColorFactor": [
          0.188235,
          0.0,
          0.0,
          0.501961
        ],
        "metallicFactor": 0.0,
        "roughnessFactor": 0.6
      }
    },
    {
      "alphaMode": "BLEND",
      "name": "Red_Glass_2",
      "pbrMetallicRoughness": {
        "baseColorFactor": [
          0.776471,
          0.0,
          0.0,
          0.501961
        ],
        "metallicFactor": 0.0,
        "roughnessFactor": 0.6
      }
    },
    {
      "name": "brembo-logo",
      "pbrMetallicRoughness": {
        "baseColorTexture": {
          "index": 1
        },
        "metallicFactor": 0.0,
        "roughnessFactor": 0.6
      }
    }
  ],
  "meshes": [
    {
      "name": "Material3",
      "primitives": [
        {
          "attributes": {
            "POSITION": 0
          },
          "indices": 1,
          "material": 0,
          "mode": 1
        }
      ]
    },
    {
      "name": "Material2",
      "primitives": [
        {
          "attributes": {
            "NORMAL": 3,
            "POSITION": 2
          },
          "indices": 4,
          "material": 1,
          "mode": 4
        }
      ]
    },
    {
      "name": "Material2",
      "primitives": [
        {
          "attributes": {
            "NORMAL": 6,
            "POSITION": 5
          },
          "indices": 7,
          "material": 2,
          "mode": 4
        }
      ]
    },
    {
      "name": "Material3",
      "primitives": [
        {
          "attributes": {
            "POSITION": 8
          },
          "indices": 9,
          "material": 3,
          "mode": 1
        }
      ]
    },
    {
      "name": "Material2",
      "primitives": [
        {
          "attributes": {
            "NORMAL": 11,
            "POSITION": 10
          },
          "indices": 12,
          "material": 4,
          "mode": 4
        }
      ]
    },
    {
      "name": "Material4",
      "primitives": [
        {
          "attributes": {
            "POSITION": 13
          },
          "indices": 14,
          "material": 6,
          "mode": 1
        }
      ]
    },
    {
      "name": "Material2",
      "primitives": [
        {
          "attributes": {
            "NORMAL": 16,
            "POSITION": 15
          },
          "indices": 17,
          "material": 7,
          "mode": 4
        }
      ]
    },
    {
      "name": "Material3",
      "primitives": [
        {
          "attributes": {
            "POSITION": 18
          },
          "indices": 19,
          "material": 8,
          "mode": 1
        }
      ]
    },
    {
      "name": "Material2",
      "primitives": [
        {
          "attributes": {
            "NORMAL": 21,
            "POSITION": 20
          },
          "indices": 22,
          "material": 9,
          "mode": 4
        }
      ]
    },
    {
      "name": "Material3",
      "primitives": [
        {
          "attributes": {
            "POSITION": 23
          },
          "indices": 24,
          "material": 10,
          "mode": 1
        }
      ]
    },
    {
      "name": "Material2",
      "primitives": [
        {
          "attributes": {
            "NORMAL": 26,
            "POSITION": 25
          },
          "indices": 27,
          "material": 11,
          "mode": 4
        }
      ]
    },
    {
      "name": "Material2",
      "primitives": [
        {
          "attributes": {
            "NORMAL": 29,
            "POSITION": 28
          },
          "indices": 30,
          "material": 12,
          "mode": 4
        }
      ]
    },
    {
      "name": "Material2",
      "primitives": [
        {
          "attributes": {
            "NORMAL": 32,
            "POSITION": 31
          },
          "indices": 33,
          "material": 13,
          "mode": 4
        }
      ]
    },
    {
      "name": "Material2",
      "primitives": [
        {
          "attributes": {
            "NORMAL": 35,
            "POSITION": 34
          },
          "indices": 36,
          "material": 15,
          "mode": 4
        }
      ]
    },
    {
      "name": "Material2",
      "primitives": [
        {
          "attributes": {
            "NORMAL": 38,
            "POSITION": 37
          },
          "indices": 39,
          "material": 16,
          "mode": 4
        }
      ]
    },
    {
      "name": "Material3",
      "primitives": [
        {
          "attributes": {
            "NORMAL": 41,
            "POSITION": 40
          },
          "indices": 42,
          "material": 17,
          "mode": 4
        }
      ]
    },
    {
      "name": "Material3",
      "primitives": [
        {
          "attributes": {
            "POSITION": 43
          },
          "indices": 44,
          "material": 18,
          "mode": 1
        }
      ]
    },
    {
      "name": "Material2",
      "primitives": [
        {
          "attributes": {
            "NORMAL": 46,
            "POSITION": 45
          },
          "indices": 47,
          "material": 20,
          "mode": 4
        }
      ]
    },
    {
      "name": "Material2",
      "primitives": [
        {
          "attributes": {
            "NORMAL": 49,
            "POSITION": 48
          },
          "indices": 50,
          "material": 21,
          "mode": 4
        }
      ]
    },
    {
      "name": "Material3",
      "primitives": [
        {
          "attributes": {
            "POSITION": 51
          },
          "indices": 52,
          "material": 22,
          "mode": 1
        }
      ]
    },
    {
      "name": "Material5",
      "primitives": [
        {
          "attributes": {
            "POSITION": 53
          },
          "indices": 54,
          "material": 23,
          "mode": 1
        }
      ]
    },
    {
      "name": "Material2",
      "primitives": [
        {
          "attributes": {
            "NORMAL": 56,
            "POSITION": 55,
            "TEXCOORD_0": 57
          },
          "indices": 58,
          "material": 24,
          "mode": 4
        }
      ]
    },
    {
      "name": "Material5",
      "primitives": [
        {
          "attributes": {
            "POSITION": 59
          },
          "indices": 60,
          "material": 25,
          "mode": 1
        }
      ]
    },
    {
      "name": "Material3",
      "primitives": [
        {
          "attributes": {
            "NORMAL": 62,
            "POSITION": 61
          },
          "indices": 63,
          "material": 26,
          "mode": 4
        }
      ]
    },
    {
      "name": "Material4",
      "primitives": [
        {
          "attributes": {
            "POSITION": 64
          },
          "indices": 65,
          "material": 27,
          "mode": 1
        }
      ]
    },
    {
      "name": "Material2",
      "primitives": [
        {
          "attributes": {
            "NORMAL": 67,
            "POSITION": 66
          },
          "indices": 68,
          "material": 28,
          "mode": 4
        }
      ]
    },
    {
      "name": "Material2",
      "primitives": [
        {
          "attributes": {
            "NORMAL": 70,
            "POSITION": 69
          },
          "indices": 71,
          "material": 29,
          "mode": 4
        }
      ]
    },
    {
      "name": "Material3",
      "primitives": [
        {
          "attributes": {
            "POSITION": 72
          },
          "indices": 73,
          "material": 30,
          "mode": 1
        }
      ]
    },
    {
      "name": "Material2",
      "primitives": [
        {
          "attributes": {
            "NORMAL": 75,
            "POSITION": 74
          },
          "indices": 76,
          "material": 31,
          "mode": 4
        }
      ]
    },
    {
      "name": "Material2",
      "primitives": [
        {
          "attributes": {
            "NORMAL": 78,
            "POSITION": 77
          },
          "indices": 79,
          "material": 32,
          "mode": 4
        }
      ]
    },
    {
      "name": "Material2",
      "primitives": [
        {
          "attributes": {
            "NORMAL": 81,
            "POSITION": 80
          },
          "indices": 82,
          "material": 32,
          "mode": 4
        }
      ]
    },
    {
      "name": "Material4",
      "primitives": [
        {
          "attributes": {
            "POSITION": 83
          },
          "indices": 84,
          "material": 33,
          "mode": 1
        }
      ]
    },
    {
      "name": "Material2",
      "primitives": [
        {
          "attributes": {
            "NORMAL": 86,
            "POSITION": 85
          },
          "indices": 87,
          "material": 34,
          "mode": 4
        }
      ]
    },
    {
      "name": "Material3",
      "primitives": [
        {
          "attributes": {
            "NORMAL": 89,
            "POSITION": 88
          },
          "indices": 90,
          "material": 35,
          "mode": 4
        }
      ]
    },
    {
      "name": "Material2",
      "primitives": [
        {
          "attributes": {
            "NORMAL": 92,
            "POSITION": 91
          },
          "indices": 93,
          "material": 36,
          "mode": 4
        }
      ]
    },
    {
      "name": "Material3",
      "primitives": [
        {
          "attributes": {
            "NORMAL": 95,
            "POSITION": 94,
            "TEXCOORD_0": 96
          },
          "indices": 97,
          "material": 37,
          "mode": 4
        }
      ]
    },
    {
      "name": "Material2",
      "primitives": [
        {
          "attributes": {
            "POSITION": 98
          },
          "indices": 99,
          "material": 5,
          "mode": 1
        }
      ]
    },
    {
      "name": "Material3",
      "primitives": [
        {
          "attributes": {
            "POSITION": 100
          },
          "indices": 101,
          "material": 5,
          "mode": 1
        }
      ]
    },
    {
      "name": "Material2",
      "primitives": [
        {
          "attributes": {
            "POSITION": 102
          },
          "indices": 103,
          "material": 14,
          "mode": 1
        }
      ]
    },
    {
      "name": "Material2",
      "primitives": [
        {
          "attributes": {
            "POSITION": 104
          },
          "indices": 105,
          "material": 19,
          "mode": 1
        }
      ]
    }
  ],
  "nodes": [
    {
      "children": [
        1
      ],
      "matrix": [
        -0.9999971985816956,
        5.263864123630464e-19,
        -0.002370633650571108,
        0.0,
        -0.002370633650571108,
        -2.2204398288521067e-16,
        0.9999971985816956,
        0.0,
        0.0,
        1.0,
        2.220446049250313e-16,
        0.0,
        0.0,
        0.0,
        0.0,
        1.0
      ],
      "name": "Sketchfab_model"
    },
    {
      "children": [
        2,
        3,
        4,
        5,
        6,
        7,
        8,
        9,
        10,
        11,
        12,
        13,
        14,
        15,
        16,
        17,
        18,
        19,
        20,
        21,
        22,
        23,
        24,
        25,
        26,
        27,
        28,
        29,
        30,
        31,
        32,
        33,
        34,
        35,
        36,
        37,
        38,
        39,
        40,
        41,
        42
      ],
      "name": "Collada visual scene group"
    },
    {
      "mesh": 0,
      "name": "Material3"
    },
    {
      "mesh": 1,
      "name": "Material2"
    },
    {
      "mesh": 2,
      "name": "Material2"
    },
    {
      "mesh": 3,
      "name": "Material3"
    },
    {
      "mesh": 4,
      "name": "Material2"
    },
    {
      "mesh": 5,
      "name": "Material4"
    },
    {
      "mesh": 6,
      "name": "Material2"
    },
    {
      "mesh": 7,
      "name": "Material3"
    },
    {
      "mesh": 8,
      "name": "Material2"
    },
    {
      "mesh": 9,
      "name": "Material3"
    },
    {
      "mesh": 10,
      "name": "Material2"
    },
    {
      "mesh": 11,
      "name": "Material2"
    },
    {
      "mesh": 12,
      "name": "Material2"
    },
    {
      "mesh": 13,
      "name": "Material2"
    },
    {
      "mesh": 14,
      "name": "Material2"
    },
    {
      "mesh": 15,
      "name": "Material3"
    },
    {
      "mesh": 16,
      "name": "Material3"
    },
    {
      "mesh": 17,
      "name": "Material2"
    },
    {
      "mesh": 18,
      "name": "Material2"
    },
    {
      "mesh": 19,
      "name": "Material3"
    },
    {
      "mesh": 20,
      "name": "Material5"
    },
    {
      "mesh": 21,
      "name": "Material2"
    },
    {
      "mesh": 22,
      "name": "Material5"
    },
    {
      "mesh": 23,
      "name": "Material3"
    },
    {
      "mesh": 24,
      "name": "Material4"
    },
    {
      "mesh": 25,
      "name": "Material2"
    },
    {
      "mesh": 26,
      "name": "Material2"
    },
    {
      "mesh": 27,
      "name": "Material3"
    },
    {
      "mesh": 28,
      "name": "Material2"
    },
    {
      "mesh": 29,
      "name": "Material2"
    },
    {
      "mesh": 30,
      "name": "Material2"
    },
    {
      "mesh": 31,
      "name": "Material4"
    },
    {
      "mesh": 32,
      "name": "Material2"
    },
    {
      "mesh": 33,
      "name": "Material3"
    },
    {
      "mesh": 34,
      "name": "Material2"
    },
    {
      "mesh": 35,
      "name": "Material3"
    },
    {
      "mesh": 36,
      "name": "Material2"
    },
    {
      "mesh": 37,
      "name": "Material3"
    },
    {
      "mesh": 38,
      "name": "Material2"
    },
    {
      "mesh": 39,
      "name": "Material2"
    },
    {
      "children": [
        43
      ],
      "name": "SketchUp"
    },
    {
      "children": [
        44
      ],
      "matrix": [
        -0.8085129,
        0.5884784,
        -1.734723e-18,
        0.0,
        -0.01924831,
        -0.02644533,
        0.9994649,
        0.0,
        0.5881635,
        0.8080803,
        0.0327086,
        0.0,
        11560.75,
        14056.71,
        4273.698,
        1.0
      ],
      "name": "skp_camera_Last_Saved_SketchUp_View"
    },
    {
      "name": "ID1"
    }
  ],
  "samplers": [
    {
      "magFilter": 9729,
      "minFilter": 9987,
      "wrapS": 10497,
      "wrapT": 10497
    }
  ],
  "scene": 0,
  "scenes": [
    {
      "name": "Sketchfab_Scene",
      "nodes": [
        0
      ]
    }
  ],
  "textures": [
    {
      "sampler": 0,
      "source": 0
    },
    {
      "sampler": 0,
      "source": 1
    }
  ]
}
