{
  "accessors": [
    {
      "bufferView": 2,
      "componentType": 5126,
      "count": 65532,
      "max": [
        0.8582460284233093,
        6.749169826507568,
        4.622025012969971
      ],
      "min": [
        -3.126293897628784,
        -9.284689903259277,
        0.6282569766044617
      ],
      "type": "VEC3"
    },
    {
      "bufferView": 2,
      "byteOffset": 786384,
      "componentType": 5126,
      "count": 65532,
      "max": [
        0.9976341724395752,
        0.9994219541549683,
        1.0
      ],
      "min": [
        -1.0,
        -0.9988296031951904,
        -0.9999550580978394
      ],
      "type": "VEC3"
    },
    {
      "bufferView": 1,
      "componentType": 5126,
      "count": 65532,
      "max": [
        0.9916880130767822,
        0.9919430017471313
      ],
      "min": [
        0.008057000115513802,
        0.009181000292301178
      ],
      "type": "VEC2"
    },
    {
      "bufferView": 0,
      "componentType": 5125,
      "count": 366162,
      "type": "SCALAR"
    },
    {
      "bufferView": 2,
      "byteOffset": 1572768,
      "componentType": 5126,
      "count": 4029,
      "max": [
        0.28373101353645325,
        5.699929237365723,
        3.0595550537109375
      ],
      "min": [
        -0.13777099549770355,
        -3.8495121002197266,
        0.6474969983100891
      ],
      "type": "VEC3"
    },
    {
      "bufferView": 2,
      "byteOffset": 1621116,
      "componentType": 5126,
      "count": 4029,
      "max": [
        0.043899230659008026,
        0.6710227727890015,
        0.9999946355819702
      ],
      "min": [
        -0.9999994039535522,
        -0.7925038933753967,
        -0.882614016532898
      ],
      "type": "VEC3"
    },
    {
      "bufferView": 1,
      "byteOffset": 524256,
      "componentType": 5126,
      "count": 4029,
      "max": [
        0.9445689916610718,
        0.09766899794340134
      ],
      "min": [
        0.2749899923801422,
        0.012800999917089939
      ],
      "type": "VEC2"
    },
    {
      "bufferView": 0,
      "byteOffset": 1464648,
      "componentType": 5125,
      "count": 20709,
      "type": "SCALAR"
    },
    {
      "bufferView": 2,
      "byteOffset": 1669464,
      "componentType": 5126,
      "count": 46935,
      "max": [
        0.910830020904541,
        6.750483989715576,
        4.622025012969971
      ],
      "min": [
        -2.5039451122283936,
        -9.087533950805664,
        0.6364169716835022
      ],
      "type": "VEC3"
    },
    {
      "bufferView": 2,
      "byteOffset": 2232684,
      "componentType": 5126,
      "count": 46935,
      "max": [
        0.98439621925354,
        0.9943832159042358,
        1.0
      ],
      "min": [
        -0.9999997615814209,
        -0.9999897480010986,
        -0.999971866607666
      ],
      "type": "VEC3"
    },
    {
      "bufferView": 1,
      "byteOffset": 556488,
      "componentType": 5126,
      "count": 46935,
      "max": [
        0.9916239976882935,
        0.9919019937515259
      ],
      "min": [
        0.008058999665081501,
        0.010815000161528587
      ],
      "type": "VEC2"
    },
    {
      "bufferView": 0,
      "byteOffset": 1547484,
      "componentType": 5125,
      "count": 253728,
      "type": "SCALAR"
    },
    {
      "bufferView": 2,
      "byteOffset": 2795904,
      "componentType": 5126,
      "count": 9691,
      "max": [
        0.8946620225906372,
        6.749937057495117,
        4.622025012969971
      ],
      "min": [
        -2.530855894088745,
        -9.841121673583984,
        0.6442570090293884
      ],
      "type": "VEC3"
    },
    {
      "bufferView": 2,
      "byteOffset": 2912196,
      "componentType": 5126,
      "count": 9691,
      "max": [
        0.9976341724395752,
        0.9994219541549683,
        1.0
      ],
      "min": [
        -0.9999918937683105,
        -0.999997615814209,
        -0.9999517202377319
      ],
      "type": "VEC3"
    },
    {
      "bufferView": 1,
      "byteOffset": 931968,
      "componentType": 5126,
      "count": 9691,
      "max": [
        0.9904869794845581,
        0.9916409850120544
      ],
      "min": [
        0.00837399996817112,
        0.008837999776005745
      ],
      "type": "VEC2"
    },
    {
      "bufferView": 0,
      "byteOffset": 2562396,
      "componentType": 5125,
      "count": 43458,
      "type": "SCALAR"
    },
    {
      "bufferView": 2,
      "byteOffset": 3028488,
      "componentType": 5126,
      "count": 115,
      "max": [
        0.8236849904060364,
        6.685033798217773,
        4.555755138397217
      ],
      "min": [
        -2.439816951751709,
        -9.934674263000488,
        0.6869959831237793
      ],
      "type": "VEC3"
    },
    {
      "bufferView": 2,
      "byteOffset": 3029868,
      "componentType": 5126,
      "count": 115,
      "max": [
        0.9539259076118469,
        0.9954632520675659,
        0.9989938139915466
      ],
      "min": [
        -0.9771743416786194,
        -0.9917973875999451,
        -0.9977519512176514
      ],
      "type": "VEC3"
    },
    {
      "bufferView": 1,
      "byteOffset": 1009496,
      "componentType": 5126,
      "count": 115,
      "max": [
        0.9815109968185425,
        0.9698669910430908
      ],
      "min": [
        0.012001000344753265,
        0.10002599656581879
      ],
      "type": "VEC2"
    },
    {
      "bufferView": 0,
      "byteOffset": 2736228,
      "componentType": 5125,
      "count": 246,
      "type": "SCALAR"
    },
    {
      "bufferView": 2,
      "byteOffset": 3031248,
      "componentType": 5126,
      "count": 222,
      "max": [
        0.6623200178146362,
        2.8056700229644775,
        4.598505020141602
      ],
      "min": [
        -2.6141788959503174,
        -9.503390312194824,
        0.6820359826087952
      ],
      "type": "VEC3"
    },
    {
      "bufferView": 2,
      "byteOffset": 3033912,
      "componentType": 5126,
      "count": 222,
      "max": [
        0.969235360622406,
        0.9515190720558167,
        0.9997168183326721
      ],
      "min": [
        -0.9791600704193115,
        -0.9967949986457825,
        -0.9911866188049316
      ],
      "type": "VEC3"
    },
    {
      "bufferView": 1,
      "byteOffset": 1010416,
      "componentType": 5126,
      "count": 222,
      "max": [
        0.9833440184593201,
        0.9876310229301453
      ],
      "min": [
        0.011758999899029732,
        0.03147000074386597
      ],
      "type": "VEC2"
    },
    {
      "bufferView": 0,
      "byteOffset": 2737212,
      "componentType": 5125,
      "count": 471,
      "type": "SCALAR"
    },
    {
      "bufferView": 2,
      "byteOffset": 3036576,
      "componentType": 5126,
      "count": 282,
      "max": [
        0.8978490233421326,
        6.711620807647705,
        4.5971550941467285
      ],
      "min": [
        -2.532672882080078,
        -9.969196319580078,
        0.6830270290374756
      ],
      "type": "VEC3"
    },
    {
      "bufferView": 2,
      "byteOffset": 3039960,
      "componentType": 5126,
      "count": 282,
      "max": [
        0.9976341724395752,
        0.9992853403091431,
        0.9999618530273438
      ],
      "min": [
        -0.9987308382987976,
        -0.9997667670249939,
        -0.9976120591163635
      ],
      "type": "VEC3"
    },
    {
      "bufferView": 1,
      "byteOffset": 1012192,
      "componentType": 5126,
      "count": 282,
      "max": [
        0.9842919707298279,
        0.9882550239562988
      ],
      "min": [
        0.011718999594449997,
        0.015716999769210815
      ],
      "type": "VEC2"
    },
    {
      "bufferView": 0,
      "byteOffset": 2739096,
      "componentType": 5125,
      "count": 630,
      "type": "SCALAR"
    },
    {
      "bufferView": 2,
      "byteOffset": 3043344,
      "componentType": 5126,
      "count": 227,
      "max": [
        0.8648290038108826,
        4.345282077789307,
        4.556875228881836
      ],
      "min": [
        -2.775892972946167,
        -9.364481925964355,
        0.6802759766578674
      ],
      "type": "VEC3"
    },
    {
      "bufferView": 2,
      "byteOffset": 3046068,
      "componentType": 5126,
      "count": 227,
      "max": [
        0.98775714635849,
        0.9943785667419434,
        0.9995179772377014
      ],
      "min": [
        -0.9982292652130127,
        -0.9992691278457642,
        -0.999213457107544
      ],
      "type": "VEC3"
    },
    {
      "bufferView": 1,
      "byteOffset": 1014448,
      "componentType": 5126,
      "count": 227,
      "max": [
        0.9831990003585815,
        0.9844210147857666
      ],
      "min": [
        0.01235199999064207,
        0.017396999523043633
      ],
      "type": "VEC2"
    },
    {
      "bufferView": 0,
      "byteOffset": 2741616,
      "componentType": 5125,
      "count": 405,
      "type": "SCALAR"
    },
    {
      "bufferView": 2,
      "byteOffset": 3048792,
      "componentType": 5126,
      "count": 250,
      "max": [
        0.8585929870605469,
        4.941562175750732,
        4.555755138397217
      ],
      "min": [
        -3.0029430389404297,
        -9.288996696472168,
        0.6524959802627563
      ],
      "type": "VEC3"
    },
    {
      "bufferView": 2,
      "byteOffset": 3051792,
      "componentType": 5126,
      "count": 250,
      "max": [
        0.9168148040771484,
        0.9743403196334839,
        0.9998380541801453
      ],
      "min": [
        -0.9943571090698242,
        -0.9925350546836853,
        -0.9958910942077637
      ],
      "type": "VEC3"
    },
    {
      "bufferView": 1,
      "byteOffset": 1016264,
      "componentType": 5126,
      "count": 250,
      "max": [
        0.9882810115814209,
        0.9865099787712097
      ],
      "min": [
        0.013412999920547009,
        0.017635999247431755
      ],
      "type": "VEC2"
    },
    {
      "bufferView": 0,
      "byteOffset": 2743236,
      "componentType": 5125,
      "count": 360,
      "type": "SCALAR"
    },
    {
      "bufferView": 2,
      "byteOffset": 3054792,
      "componentType": 5126,
      "count": 244,
      "max": [
        0.8680170178413391,
        2.2971858978271484,
        4.534615993499756
      ],
      "min": [
        -3.046821117401123,
        -9.701753616333008,
        0.6436359882354736
      ],
      "type": "VEC3"
    },
    {
      "bufferView": 2,
      "byteOffset": 3057720,
      "componentType": 5126,
      "count": 244,
      "max": [
        0.99592524766922,
        0.9805037379264832,
        0.9999978542327881
      ],
      "min": [
        -0.9789563417434692,
        -0.9999414682388306,
        -0.9946112632751465
      ],
      "type": "VEC3"
    },
    {
      "bufferView": 1,
      "byteOffset": 1018264,
      "componentType": 5126,
      "count": 244,
      "max": [
        0.9882810115814209,
        0.9831830263137817
      ],
      "min": [
        0.017156999558210373,
        0.016246000304818153
      ],
      "type": "VEC2"
    },
    {
      "bufferView": 0,
      "byteOffset": 2744676,
      "componentType": 5125,
      "count": 327,
      "type": "SCALAR"
    },
    {
      "bufferView": 2,
      "byteOffset": 3060648,
      "componentType": 5126,
      "count": 216,
      "max": [
        0.6753469705581665,
        4.856025218963623,
        4.534615993499756
      ],
      "min": [
        -2.492691993713379,
        -9.422061920166016,
        0.68088698387146
      ],
      "type": "VEC3"
    },
    {
      "bufferView": 2,
      "byteOffset": 3063240,
      "componentType": 5126,
      "count": 216,
      "max": [
        0.9976341724395752,
        0.9725563526153564,
        0.9995738863945007
      ],
      "min": [
        -0.99418705701828,
        -0.9988296031951904,
        -0.9995693564414978
      ],
      "type": "VEC3"
    },
    {
      "bufferView": 1,
      "byteOffset": 1020216,
      "componentType": 5126,
      "count": 216,
      "max": [
        0.9839609861373901,
        0.9882259964942932
      ],
      "min": [
        0.014043999835848808,
        0.011741000227630138
      ],
      "type": "VEC2"
    },
    {
      "bufferView": 0,
      "byteOffset": 2745984,
      "componentType": 5125,
      "count": 276,
      "type": "SCALAR"
    },
    {
      "bufferView": 2,
      "byteOffset": 3065832,
      "componentType": 5126,
      "count": 246,
      "max": [
        0.8845900297164917,
        6.713335990905762,
        4.55412483215332
      ],
      "min": [
        -2.3919548988342285,
        -9.834513664245605,
        0.6859059929847717
      ],
      "type": "VEC3"
    },
    {
      "bufferView": 2,
      "byteOffset": 3068784,
      "componentType": 5126,
      "count": 246,
      "max": [
        0.9927907586097717,
        0.9134801626205444,
        0.9997491240501404
      ],
      "min": [
        -0.9949598908424377,
        -0.9869726896286011,
        -0.9936631917953491
      ],
      "type": "VEC3"
    },
    {
      "bufferView": 1,
      "byteOffset": 1021944,
      "componentType": 5126,
      "count": 246,
      "max": [
        0.9804779887199402,
        0.9856250286102295
      ],
      "min": [
        0.011772999539971352,
        0.023692000657320023
      ],
      "type": "VEC2"
    },
    {
      "bufferView": 0,
      "byteOffset": 2747088,
      "componentType": 5125,
      "count": 273,
      "type": "SCALAR"
    },
    {
      "bufferView": 2,
      "byteOffset": 3071736,
      "componentType": 5126,
      "count": 57,
      "max": [
        0.8857420086860657,
        6.534000873565674,
        4.513014793395996
      ],
      "min": [
        0.07176099717617035,
        -8.384549140930176,
        1.0717359781265259
      ],
      "type": "VEC3"
    },
    {
      "bufferView": 1,
      "byteOffset": 1023912,
      "componentType": 5126,
      "count": 57,
      "max": [
        0.0,
        0.0
      ],
      "min": [
        0.0,
        0.0
      ],
      "type": "VEC2"
    },
    {
      "bufferView": 0,
      "byteOffset": 2748180,
      "componentType": 5125,
      "count": 66,
      "type": "SCALAR"
    },
    {
      "bufferView": 2,
      "byteOffset": 3072420,
      "componentType": 5126,
      "count": 34,
      "max": [
        0.8677250146865845,
        3.1968600749969482,
        4.540225982666016
      ],
      "min": [
        -1.65658700466156,
        -7.36957311630249,
        0.6993359923362732
      ],
      "type": "VEC3"
    },
    {
      "bufferView": 2,
      "byteOffset": 3072828,
      "componentType": 5126,
      "count": 34,
      "max": [
        0.9915163516998291,
        0.9299004077911377,
        0.9964107871055603
      ],
      "min": [
        -0.9915679693222046,
        -0.9975927472114563,
        -0.9850364327430725
      ],
      "type": "VEC3"
    },
    {
      "bufferView": 1,
      "byteOffset": 1024368,
      "componentType": 5126,
      "count": 34,
      "max": [
        0.6323180198669434,
        0.9873319864273071
      ],
      "min": [
        0.01255900040268898,
        0.9267899990081787
      ],
      "type": "VEC2"
    },
    {
      "bufferView": 0,
      "byteOffset": 2748444,
      "componentType": 5125,
      "count": 36,
      "type": "SCALAR"
    }
  ],
  "asset": {
    "extras": {
      "author": "Austin Beaulier (https://sketchfab.com/Austin.Beaulier)",
      "license": "SKETCHFAB Standard (https://sketchfab.com/licenses)",
      "source": "https://sketchfab.com/3d-models/street-art-iphone-lidar-scan-b7fb196475fb48ea953031f75cb89384",
      "title": "Street Art (iPhone Lidar scan)"
    },
    "generator": "Sketchfab-15.49.0",
    "version": "2.0"
  },
  "bufferViews": [
    {
      "buffer": 0,
      "byteLength": 2748588,
      "name": "floatBufferViews",
      "target": 34963
    },
    {
      "buffer": 0,
      "byteLength": 1024640,
      "byteOffset": 2748588,
      "byteStride": 8,
      "name": "floatBufferViews",
      "target": 34962
    },
    {
      "buffer": 0,
      "byteLength": 3073236,
      "byteOffset": 3773228,
      "byteStride": 12,
      "name": "floatBufferViews",
      "target": 34962
    }
  ],
  "buffers": [
    {
      "byteLength": 6846464,
      "uri": "scene.bin"
    }
  ],
  "extensionsUsed": [
    "KHR_materials_unlit"
  ],
  "images": [
    {
      "uri": "textures/material0000_baseColor.jpeg"
    },
    {
      "uri": "textures/material0001_baseColor.jpeg"
    },
    {
      "uri": "textures/material0002_baseColor.jpeg"
    },
    {
      "uri": "textures/material0003_baseColor.jpeg"
    },
    {
      "uri": "textures/material0004_baseColor.jpeg"
    },
    {
      "uri": "textures/material0005_baseColor.jpeg"
    },
    {
      "uri": "textures/material0006_baseColor.jpeg"
    },
    {
      "uri": "textures/material0007_baseColor.jpeg"
    },
    {
      "uri": "textures/material0008_baseColor.jpeg"
    },
    {
      "uri": "textures/material0009_baseColor.jpeg"
    },
    {
      "uri": "textures/material0010_baseColor.jpeg"
    },
    {
      "uri": "textures/material0011_baseColor.jpeg"
    }
  ],
  "materials": [
    {
      "doubleSided": true,
      "extensions": {
        "KHR_materials_unlit": {}
      },
      "name": "material0000",
      "pbrMetallicRoughness": {
        "baseColorTexture": {
          "index": 0
        },
        "metallicFactor": 0.0
      }
    },
    {
      "doubleSided": true,
      "extensions": {
        "KHR_materials_unlit": {}
      },
      "name": "material0001",
      "pbrMetallicRoughness": {
        "baseColorTexture": {
          "index": 1
        },
        "metallicFactor": 0.0
      }
    },
    {
      "doubleSided": true,
      "extensions": {
        "KHR_materials_unlit": {}
      },
      "name": "material0002",
      "pbrMetallicRoughness": {
        "baseColorTexture": {
          "index": 2
        },
        "metallicFactor": 0.0
      }
    },
    {
      "doubleSided": true,
      "extensions": {
        "KHR_materials_unlit": {}
      },
      "name": "material0003",
      "pbrMetallicRoughness": {
        "baseColorTexture": {
          "index": 3
        },
        "metallicFactor": 0.0
      }
    },
    {
      "doubleSided": true,
      "extensions": {
        "KHR_materials_unlit": {}
      },
      "name": "material0004",
      "pbrMetallicRoughness": {
        "baseColorTexture": {
          "index": 4
        },
        "metallicFactor": 0.0
      }
    },
    {
      "doubleSided": true,
      "extensions": {
        "KHR_materials_unlit": {}
      },
      "name": "material0005",
      "pbrMetallicRoughness": {
        "baseColorTexture": {
          "index": 5
        },
        "metallicFactor": 0.0
      }
    },
    {
      "doubleSided": true,
      "extensions": {
        "KHR_materials_unlit": {}
      },
      "name": "material0006",
      "pbrMetallicRoughness": {
        "baseColorTexture": {
          "index": 6
        },
        "metallicFactor": 0.0
      }
    },
    {
      "doubleSided": true,
      "extensions": {
        "KHR_materials_unlit": {}
      },
      "name": "material0007",
      "pbrMetallicRoughness": {
        "baseColorTexture": {
          "index": 7
        },
        "metallicFactor": 0.0
      }
    },
    {
      "doubleSided": true,
      "extensions": {
        "KHR_materials_unlit": {}
      },
      "name": "material0008",
      "pbrMetallicRoughness": {
        "baseColorTexture": {
          "index": 8
        },
        "metallicFactor": 0.0
      }
    },
    {
      "doubleSided": true,
      "extensions": {
        "KHR_materials_unlit": {}
      },
      "name": "material0009",
      "pbrMetallicRoughness": {
        "baseColorTexture": {
          "index": 9
        },
        "metallicFactor": 0.0
      }
    },
    {
      "doubleSided": true,
      "extensions": {
        "KHR_materials_unlit": {}
      },
      "name": "material0010",
      "pbrMetallicRoughness": {
        "baseColorTexture": {
          "index": 10
        },
        "metallicFactor": 0.0
      }
    },
    {
      "doubleSided": true,
      "extensions": {
        "KHR_materials_unlit": {}
      },
      "name": "material0011",
      "pbrMetallicRoughness": {
        "baseColorTexture": {
          "index": 11
        },
        "metallicFactor": 0.0
      }
    }
  ],
  "meshes": [
    {
      "name": "Object_0",
      "primitives": [
        {
          "attributes": {
            "NORMAL": 1,
            "POSITION": 0,
            "TEXCOORD_0": 2
          },
          "indices": 3,
          "material": 0,
          "mode": 4
        }
      ]
    },
    {
      "name": "Object_1",
      "primitives": [
        {
          "attributes": {
            "NORMAL": 5,
            "POSITION": 4,
            "TEXCOORD_0": 6
          },
          "indices": 7,
          "material": 0,
          "mode": 4
        }
      ]
    },
    {
      "name": "Object_2",
      "primitives": [
        {
          "attributes": {
            "NORMAL": 9,
            "POSITION": 8,
            "TEXCOORD_0": 10
          },
          "indices": 11,
          "material": 1,
          "mode": 4
        }
      ]
    },
    {
      "name": "Object_3",
      "primitives": [
        {
          "attributes": {
            "NORMAL": 13,
            "POSITION": 12,
            "TEXCOORD_0": 14
          },
          "indices": 15,
          "material": 2,
          "mode": 4
        }
      ]
    },
    {
      "name": "Object_4",
      "primitives": [
        {
          "attributes": {
            "NORMAL": 17,
            "POSITION": 16,
            "TEXCOORD_0": 18
          },
          "indices": 19,
          "material": 3,
          "mode": 4
        }
      ]
    },
    {
      "name": "Object_5",
      "primitives": [
        {
          "attributes": {
            "NORMAL": 21,
            "POSITION": 20,
            "TEXCOORD_0": 22
          },
          "indices": 23,
          "material": 4,
          "mode": 4
        }
      ]
    },
    {
      "name": "Object_6",
      "primitives": [
        {
          "attributes": {
            "NORMAL": 25,
            "POSITION": 24,
            "TEXCOORD_0": 26
          },
          "indices": 27,
          "material": 5,
          "mode": 4
        }
      ]
    },
    {
      "name": "Object_7",
      "primitives": [
        {
          "attributes": {
            "NORMAL": 29,
            "POSITION": 28,
            "TEXCOORD_0": 30
          },
          "indices": 31,
          "material": 6,
          "mode": 4
        }
      ]
    },
    {
      "name": "Object_8",
      "primitives": [
        {
          "attributes": {
            "NORMAL": 33,
            "POSITION": 32,
            "TEXCOORD_0": 34
          },
          "indices": 35,
          "material": 7,
          "mode": 4
        }
      ]
    },
    {
      "name": "Object_9",
      "primitives": [
        {
          "attributes": {
            "NORMAL": 37,
            "POSITION": 36,
            "TEXCOORD_0": 38
          },
          "indices": 39,
          "material": 8,
          "mode": 4
        }
      ]
    },
    {
      "name": "Object_10",
      "primitives": [
        {
          "attributes": {
            "NORMAL": 41,
            "POSITION": 40,
            "TEXCOORD_0": 42
          },
          "indices": 43,
          "material": 9,
          "mode": 4
        }
      ]
    },
    {
      "name": "Object_11",
      "primitives": [
        {
          "attributes": {
            "NORMAL": 45,
            "POSITION": 44,
            "TEXCOORD_0": 46
          },
          "indices": 47,
          "material": 10,
          "mode": 4
        }
      ]
    },
    {
      "name": "Object_12",
      "primitives": [
        {
          "attributes": {
            "POSITION": 48,
            "TEXCOORD_0": 49
          },
          "indices": 50,
          "material": 11,
          "mode": 1
        }
      ]
    },
    {
      "name": "Object_13",
      "primitives": [
        {
          "attributes": {
            "NORMAL": 52,
            "POSITION": 51,
            "TEXCOORD_0": 53
          },
          "indices": 54,
          "material": 11,
          "mode": 4
        }
      ]
    }
  ],
  "nodes": [
    {
      "children": [
        1
      ],
      "matrix": [
        0.95328688621521,
        0.0,
        0.0,
        0.0,
        0.0,
        2.1167221002986957e-16,
        -0.95328688621521,
        0.0,
        0.0,
        0.95328688621521,
        2.1167221002986957e-16,
        0.0,
        0.0,
        0.0,
        0.0,
        1.0
      ],
      "name": "Sketchfab_model"
    },
    {
      "children": [
        2,
        3,
        4,
        5,
        6,
        7,
        8,
        9,
        10,
        11,
        12,
        13,
        14,
        15
      ],
      "name": "Graffiti4.obj.cleaner.materialmerger.gles"
    },
    {
      "mesh": 0,
      "name": "Object_2"
    },
    {
      "mesh": 1,
      "name": "Object_3"
    },
    {
      "mesh": 2,
      "name": "Object_4"
    },
    {
      "mesh": 3,
      "name": "Object_5"
    },
    {
      "mesh": 4,
      "name": "Object_6"
    },
    {
      "mesh": 5,
      "name": "Object_7"
    },
    {
      "mesh": 6,
      "name": "Object_8"
    },
    {
      "mesh": 7,
      "name": "Object_9"
    },
    {
      "mesh": 8,
      "name": "Object_10"
    },
    {
      "mesh": 9,
      "name": "Object_11"
    },
    {
      "mesh": 10,
      "name": "Object_12"
    },
    {
      "mesh": 11,
      "name": "Object_13"
    },
    {
      "mesh": 12,
      "name": "Object_14"
    },
    {
      "mesh": 13,
      "name": "Object_15"
    }
  ],
  "samplers": [
    {
      "magFilter": 9729,
      "minFilter": 9987,
      "wrapS": 10497,
      "wrapT": 10497
    }
  ],
  "scene": 0,
  "scenes": [
    {
      "name": "Sketchfab_Scene",
      "nodes": [
        0
      ]
    }
  ],
  "textures": [
    {
      "sampler": 0,
      "source": 0
    },
    {
      "sampler": 0,
      "source": 1
    },
    {
      "sampler": 0,
      "source": 2
    },
    {
      "sampler": 0,
      "source": 3
    },
    {
      "sampler": 0,
      "source": 4
    },
    {
      "sampler": 0,
      "source": 5
    },
    {
      "sampler": 0,
      "source": 6
    },
    {
      "sampler": 0,
      "source": 7
    },
    {
      "sampler": 0,
      "source": 8
    },
    {
      "sampler": 0,
      "source": 9
    },
    {
      "sampler": 0,
      "source": 10
    },
    {
      "sampler": 0,
      "source": 11
    }
  ]
}
